<mxfile host="app.diagrams.net" modified="2024-02-27T23:21:32.871Z" agent="Mozilla/5.0 (Windows NT 10.0; Win64; x64) AppleWebKit/537.36 (KHTML, like Gecko) Chrome/122.0.0.0 Safari/537.36 Edg/122.0.0.0" version="23.1.6" etag="ryS1T9PVJzkvoei3qg8w" type="device">
  <diagram id="WLpWvKPo0TFB9K8kT13m" name="Page-1">
    <mxGraphModel dx="1031" dy="689" grid="1" gridSize="10" guides="1" tooltips="1" connect="1" arrows="1" fold="1" page="1" pageScale="1" pageWidth="827" pageHeight="1169" math="0" shadow="0">
      <root>
        <mxCell id="0" />
        <mxCell id="1" parent="0" />
        <mxCell id="M2PcuExaahJauuLLPORP-30" value="&lt;font style=&quot;font-size: 36px;&quot;&gt;CramCraze&lt;/font&gt;" style="rounded=0;whiteSpace=wrap;html=1;" vertex="1" parent="1">
          <mxGeometry x="160" y="160" width="860" height="60" as="geometry" />
        </mxCell>
        <mxCell id="M2PcuExaahJauuLLPORP-31" value="" style="endArrow=classic;html=1;rounded=0;exitX=0.25;exitY=1;exitDx=0;exitDy=0;" edge="1" parent="1">
          <mxGeometry width="50" height="50" relative="1" as="geometry">
            <mxPoint x="160" y="219.9999999999999" as="sourcePoint" />
            <mxPoint x="160" y="400" as="targetPoint" />
            <Array as="points">
              <mxPoint x="160" y="300" />
            </Array>
          </mxGeometry>
        </mxCell>
        <mxCell id="M2PcuExaahJauuLLPORP-33" value="" style="endArrow=classic;html=1;rounded=0;exitX=0.5;exitY=1;exitDx=0;exitDy=0;" edge="1" parent="1">
          <mxGeometry width="50" height="50" relative="1" as="geometry">
            <mxPoint x="330.0000000000002" y="219.9999999999999" as="sourcePoint" />
            <mxPoint x="330" y="410" as="targetPoint" />
          </mxGeometry>
        </mxCell>
        <mxCell id="M2PcuExaahJauuLLPORP-34" value="" style="endArrow=classic;html=1;rounded=0;exitX=0.75;exitY=1;exitDx=0;exitDy=0;" edge="1" parent="1">
          <mxGeometry width="50" height="50" relative="1" as="geometry">
            <mxPoint x="670.0000000000002" y="219.9999999999999" as="sourcePoint" />
            <mxPoint x="670" y="410" as="targetPoint" />
          </mxGeometry>
        </mxCell>
        <mxCell id="M2PcuExaahJauuLLPORP-35" value="Register" style="rounded=0;whiteSpace=wrap;html=1;" vertex="1" parent="1">
          <mxGeometry x="100" y="400" width="120" height="70" as="geometry" />
        </mxCell>
        <mxCell id="M2PcuExaahJauuLLPORP-45" value="" style="edgeStyle=orthogonalEdgeStyle;rounded=0;orthogonalLoop=1;jettySize=auto;html=1;" edge="1" parent="1" source="M2PcuExaahJauuLLPORP-36" target="M2PcuExaahJauuLLPORP-44">
          <mxGeometry relative="1" as="geometry" />
        </mxCell>
        <mxCell id="M2PcuExaahJauuLLPORP-36" value="resources" style="rounded=0;whiteSpace=wrap;html=1;" vertex="1" parent="1">
          <mxGeometry x="280" y="410" width="120" height="60" as="geometry" />
        </mxCell>
        <mxCell id="M2PcuExaahJauuLLPORP-60" value="" style="edgeStyle=orthogonalEdgeStyle;rounded=0;orthogonalLoop=1;jettySize=auto;html=1;" edge="1" parent="1" source="M2PcuExaahJauuLLPORP-38" target="M2PcuExaahJauuLLPORP-59">
          <mxGeometry relative="1" as="geometry" />
        </mxCell>
        <mxCell id="M2PcuExaahJauuLLPORP-38" value="advice" style="rounded=0;whiteSpace=wrap;html=1;" vertex="1" parent="1">
          <mxGeometry x="610" y="410" width="120" height="60" as="geometry" />
        </mxCell>
        <mxCell id="M2PcuExaahJauuLLPORP-39" value="" style="endArrow=classic;html=1;rounded=0;exitX=0.868;exitY=1.097;exitDx=0;exitDy=0;exitPerimeter=0;" edge="1" parent="1">
          <mxGeometry width="50" height="50" relative="1" as="geometry">
            <mxPoint x="880.0000000000001" y="219.99999999999994" as="sourcePoint" />
            <mxPoint x="880" y="410" as="targetPoint" />
          </mxGeometry>
        </mxCell>
        <mxCell id="M2PcuExaahJauuLLPORP-64" value="" style="edgeStyle=orthogonalEdgeStyle;rounded=0;orthogonalLoop=1;jettySize=auto;html=1;" edge="1" parent="1" source="M2PcuExaahJauuLLPORP-40" target="M2PcuExaahJauuLLPORP-63">
          <mxGeometry relative="1" as="geometry" />
        </mxCell>
        <mxCell id="M2PcuExaahJauuLLPORP-40" value="admin" style="rounded=0;whiteSpace=wrap;html=1;" vertex="1" parent="1">
          <mxGeometry x="809.9999999999998" y="410" width="120" height="60" as="geometry" />
        </mxCell>
        <mxCell id="M2PcuExaahJauuLLPORP-66" value="" style="edgeStyle=orthogonalEdgeStyle;rounded=0;orthogonalLoop=1;jettySize=auto;html=1;" edge="1" parent="1" source="M2PcuExaahJauuLLPORP-41" target="M2PcuExaahJauuLLPORP-65">
          <mxGeometry relative="1" as="geometry" />
        </mxCell>
        <mxCell id="M2PcuExaahJauuLLPORP-41" value="contact us" style="rounded=0;whiteSpace=wrap;html=1;" vertex="1" parent="1">
          <mxGeometry x="980" y="400" width="120" height="60" as="geometry" />
        </mxCell>
        <mxCell id="M2PcuExaahJauuLLPORP-42" value="" style="endArrow=classic;html=1;rounded=0;exitX=1;exitY=1;exitDx=0;exitDy=0;entryX=0.344;entryY=-0.006;entryDx=0;entryDy=0;entryPerimeter=0;" edge="1" parent="1" source="M2PcuExaahJauuLLPORP-30" target="M2PcuExaahJauuLLPORP-41">
          <mxGeometry width="50" height="50" relative="1" as="geometry">
            <mxPoint x="560" y="480" as="sourcePoint" />
            <mxPoint x="610" y="430" as="targetPoint" />
          </mxGeometry>
        </mxCell>
        <mxCell id="M2PcuExaahJauuLLPORP-43" style="edgeStyle=orthogonalEdgeStyle;rounded=0;orthogonalLoop=1;jettySize=auto;html=1;exitX=0.5;exitY=1;exitDx=0;exitDy=0;" edge="1" parent="1" source="M2PcuExaahJauuLLPORP-41" target="M2PcuExaahJauuLLPORP-41">
          <mxGeometry relative="1" as="geometry" />
        </mxCell>
        <mxCell id="M2PcuExaahJauuLLPORP-47" value="" style="edgeStyle=orthogonalEdgeStyle;rounded=0;orthogonalLoop=1;jettySize=auto;html=1;" edge="1" parent="1" source="M2PcuExaahJauuLLPORP-44" target="M2PcuExaahJauuLLPORP-46">
          <mxGeometry relative="1" as="geometry" />
        </mxCell>
        <mxCell id="M2PcuExaahJauuLLPORP-49" value="" style="edgeStyle=orthogonalEdgeStyle;rounded=0;orthogonalLoop=1;jettySize=auto;html=1;" edge="1" parent="1" source="M2PcuExaahJauuLLPORP-44" target="M2PcuExaahJauuLLPORP-48">
          <mxGeometry relative="1" as="geometry" />
        </mxCell>
        <mxCell id="M2PcuExaahJauuLLPORP-51" value="" style="edgeStyle=orthogonalEdgeStyle;rounded=0;orthogonalLoop=1;jettySize=auto;html=1;" edge="1" parent="1" source="M2PcuExaahJauuLLPORP-44" target="M2PcuExaahJauuLLPORP-50">
          <mxGeometry relative="1" as="geometry" />
        </mxCell>
        <mxCell id="M2PcuExaahJauuLLPORP-44" value="practice or revise or add page" style="whiteSpace=wrap;html=1;rounded=0;" vertex="1" parent="1">
          <mxGeometry x="280" y="550" width="120" height="60" as="geometry" />
        </mxCell>
        <mxCell id="M2PcuExaahJauuLLPORP-53" value="" style="edgeStyle=orthogonalEdgeStyle;rounded=0;orthogonalLoop=1;jettySize=auto;html=1;" edge="1" parent="1" source="M2PcuExaahJauuLLPORP-46" target="M2PcuExaahJauuLLPORP-52">
          <mxGeometry relative="1" as="geometry" />
        </mxCell>
        <mxCell id="M2PcuExaahJauuLLPORP-46" value="add resource form&amp;nbsp;" style="whiteSpace=wrap;html=1;rounded=0;" vertex="1" parent="1">
          <mxGeometry x="280" y="660" width="120" height="60" as="geometry" />
        </mxCell>
        <mxCell id="M2PcuExaahJauuLLPORP-57" value="" style="edgeStyle=orthogonalEdgeStyle;rounded=0;orthogonalLoop=1;jettySize=auto;html=1;" edge="1" parent="1" source="M2PcuExaahJauuLLPORP-48" target="M2PcuExaahJauuLLPORP-56">
          <mxGeometry relative="1" as="geometry" />
        </mxCell>
        <mxCell id="M2PcuExaahJauuLLPORP-48" value="filtering resources page(revise)" style="whiteSpace=wrap;html=1;rounded=0;" vertex="1" parent="1">
          <mxGeometry x="480" y="550" width="120" height="60" as="geometry" />
        </mxCell>
        <mxCell id="M2PcuExaahJauuLLPORP-55" value="" style="edgeStyle=orthogonalEdgeStyle;rounded=0;orthogonalLoop=1;jettySize=auto;html=1;" edge="1" parent="1" source="M2PcuExaahJauuLLPORP-50" target="M2PcuExaahJauuLLPORP-54">
          <mxGeometry relative="1" as="geometry" />
        </mxCell>
        <mxCell id="M2PcuExaahJauuLLPORP-50" value="filtering resources page(practice)" style="whiteSpace=wrap;html=1;rounded=0;" vertex="1" parent="1">
          <mxGeometry x="80" y="550" width="120" height="60" as="geometry" />
        </mxCell>
        <mxCell id="M2PcuExaahJauuLLPORP-52" value="new resource page" style="whiteSpace=wrap;html=1;rounded=0;" vertex="1" parent="1">
          <mxGeometry x="280" y="770" width="120" height="60" as="geometry" />
        </mxCell>
        <mxCell id="M2PcuExaahJauuLLPORP-54" value="filtered resources page" style="whiteSpace=wrap;html=1;rounded=0;" vertex="1" parent="1">
          <mxGeometry x="80" y="660" width="120" height="60" as="geometry" />
        </mxCell>
        <mxCell id="M2PcuExaahJauuLLPORP-56" value="filtered resources page" style="whiteSpace=wrap;html=1;rounded=0;" vertex="1" parent="1">
          <mxGeometry x="480" y="660" width="120" height="60" as="geometry" />
        </mxCell>
        <mxCell id="M2PcuExaahJauuLLPORP-62" value="" style="edgeStyle=orthogonalEdgeStyle;rounded=0;orthogonalLoop=1;jettySize=auto;html=1;" edge="1" parent="1" source="M2PcuExaahJauuLLPORP-59" target="M2PcuExaahJauuLLPORP-61">
          <mxGeometry relative="1" as="geometry" />
        </mxCell>
        <mxCell id="M2PcuExaahJauuLLPORP-59" value="all comments page" style="whiteSpace=wrap;html=1;rounded=0;" vertex="1" parent="1">
          <mxGeometry x="610" y="550" width="120" height="60" as="geometry" />
        </mxCell>
        <mxCell id="M2PcuExaahJauuLLPORP-61" value="add comment page" style="whiteSpace=wrap;html=1;rounded=0;" vertex="1" parent="1">
          <mxGeometry x="610" y="660" width="120" height="60" as="geometry" />
        </mxCell>
        <mxCell id="M2PcuExaahJauuLLPORP-63" value="contact requests&amp;nbsp;" style="whiteSpace=wrap;html=1;rounded=0;" vertex="1" parent="1">
          <mxGeometry x="809.9999999999998" y="550" width="120" height="60" as="geometry" />
        </mxCell>
        <mxCell id="M2PcuExaahJauuLLPORP-65" value="contact form" style="whiteSpace=wrap;html=1;rounded=0;" vertex="1" parent="1">
          <mxGeometry x="980" y="540" width="120" height="60" as="geometry" />
        </mxCell>
      </root>
    </mxGraphModel>
  </diagram>
</mxfile>
